<?xml version="1.0" encoding="utf-8"?>
<!-- Generator: Adobe Illustrator 22.1.0, SVG Export Plug-In . SVG Version: 6.00 Build 0)  -->
<svg version="1.1" id="Layer_1" xmlns="http://www.w3.org/2000/svg" xmlns:xlink="http://www.w3.org/1999/xlink" x="0px" y="0px"
	 viewBox="0 0 500 500" style="enable-background:new 0 0 500 500;" xml:space="preserve">
<style type="text/css">
	.st0{fill:#D72890;}
</style>
<g>
	<polygon class="st0" points="358.3,302.3 358.3,312.3 250.5,374.5 142.7,312.3 142.7,187.7 250.5,125.5 358.3,187.7 358.3,270.2 
		370.6,270.2 370.6,180.4 250,110.7 129.4,180.4 129.4,319.6 250,389.3 370.6,319.6 370.6,302.3 	"/>
	<path class="st0" d="M422.5,304.7v-14h0v-11.4H258v-93.1h-14v93.1h0v14h0v0h14v0h148.5v11.7c-18.8,4-33,20.7-33,40.7
		c0,4.6,0.8,9,2.1,13.2l-94.5,54.6c-7.6-8.6-18.7-14-31.1-14c-12.4,0-23.5,5.4-31.1,14l-94.6-54.6c1.4-4.1,2.1-8.6,2.1-13.1
		c0-20-14.1-36.7-32.9-40.7V195.6c18.8-4,32.9-20.7,32.9-40.7c0-4.4-0.7-8.6-1.9-12.6l95.1-54.9c7.6,8.1,18.4,13.2,30.4,13.2
		c12,0,22.8-5.1,30.4-13.2l95,54.8c-1.3,4-2,8.3-2,12.7c0,20.1,14.2,36.8,33.1,40.8v0.1h0.4c2.6,0.5,5.4,0.8,8.1,0.8
		c23,0,41.7-18.6,41.7-41.7c0-23-18.6-41.7-41.7-41.7c-12.9,0-24.5,5.9-32.1,15.2l-94.1-54.4c1.8-4.7,2.8-9.8,2.8-15.1
		c0-23-18.6-41.6-41.6-41.6c-23,0-41.6,18.6-41.6,41.6c0,5.3,1,10.4,2.8,15.1L117,128.6c-7.6-9.3-19.2-15.2-32.1-15.2
		c-23,0-41.6,18.6-41.6,41.6c0,20.5,14.8,37.5,34.2,40.9v108.8c-19.5,3.5-34.2,20.5-34.2,40.9c0,23,18.6,41.6,41.6,41.6
		c12.5,0,23.7-5.5,31.4-14.3l94.4,54.5c-1.4,4.2-2.2,8.7-2.2,13.4c0,23,18.6,41.6,41.6,41.6c23,0,41.6-18.6,41.6-41.6
		c0-4.7-0.8-9.2-2.2-13.4l94.4-54.5c7.6,8.7,18.8,14.2,31.3,14.2c23,0,41.6-18.6,41.6-41.6C456.7,325.2,441.9,308.2,422.5,304.7z"/>
</g>
</svg>
